<svg xmlns="http://www.w3.org/2000/svg" viewBox="0 0 65 58.513">
  <defs>
    <style>
      .cls-1 {
        fill: #fff;
      }
    </style>
  </defs>
  <g id="bars" transform="translate(0 1.832)">
    <path id="Path_1890" data-name="Path 1890" class="cls-1" d="M217.676,297.955h-1.9v-1.9h1.9Zm-3.174,0h-1.9v-1.9h1.9Zm0,0" transform="translate(-191.006 -267.629)"/>
    <path id="Path_1891" data-name="Path 1891" class="cls-1" d="M494.4,178.254V210.86h9.433v-1.9H496.3v-28.8h10.979v28.8h-.911v1.9h2.815V178.254Zm0,0" transform="translate(-444.186 -161.796)"/>
    <path id="Path_1892" data-name="Path 1892" class="cls-1" d="M14.788,242.969h-1.9v7.943H1.9V226.857H12.883V240.43h1.9V224.953H0v27.863H14.788Zm0,0" transform="translate(0 -203.752)"/>
    <path id="Path_1893" data-name="Path 1893" class="cls-1" d="M179.587,128.03h-1.9v21H166.7V113.463h10.979v12.028h1.9V111.559H164.8v39.379h14.787Zm0,0" transform="translate(-148.063 -101.875)"/>
    <path id="Path_1894" data-name="Path 1894" class="cls-1" d="M344.388-1.832h-4.852v1.9h2.947V47.159H331.505V.072H337v-1.9h-7.4v50.9h14.787Zm0,0" transform="translate(-296.126)"/>
    <path id="Path_1895" data-name="Path 1895" class="cls-1" d="M0,523.756H65v-5.713H0Zm1.9-3.809H63.1v1.9H1.9Zm0,0" transform="translate(0 -467.075)"/>
  </g>
</svg>
