<svg xmlns="http://www.w3.org/2000/svg" viewBox="0 0 71.261 67.908">
  <defs>
    <style>
      .cls-1 {
        fill: #fff;
      }
    </style>
  </defs>
  <g id="comment" transform="translate(0 -12.046)">
    <g id="Group_2789" data-name="Group 2789" transform="translate(0 12.046)">
      <g id="Group_2788" data-name="Group 2788" transform="translate(0 0)">
        <path id="Path_1896" data-name="Path 1896" class="cls-1" d="M65.753,12.046H23.359a5.515,5.515,0,0,0-5.508,5.508v2.3H14.434a5.515,5.515,0,0,0-5.508,5.508v2.3H5.508A5.515,5.515,0,0,0,0,33.173V63.3A5.515,5.515,0,0,0,5.508,68.8h5.648v10.11a1.055,1.055,0,0,0,1.715.8L25.968,68.8H47.9A5.515,5.515,0,0,0,53.411,63.3v-2.3h3.417a5.515,5.515,0,0,0,5.508-5.508v-2.3h3.417a5.515,5.515,0,0,0,5.508-5.508V17.554A5.514,5.514,0,0,0,65.753,12.046ZM51.319,63.3A3.421,3.421,0,0,1,47.9,66.712H25.59a1.046,1.046,0,0,0-.669.242L13.248,76.681V67.758A1.046,1.046,0,0,0,12.2,66.712H5.508A3.421,3.421,0,0,1,2.092,63.3V33.173a3.421,3.421,0,0,1,3.417-3.417H47.9a3.421,3.421,0,0,1,3.417,3.417Zm17.85-15.619a3.421,3.421,0,0,1-3.417,3.417H62.336V33.731a1.046,1.046,0,0,0-2.092,0V55.486A3.421,3.421,0,0,1,56.828,58.9H53.411V33.173A5.515,5.515,0,0,0,47.9,27.665H11.017v-2.3a3.421,3.421,0,0,1,3.417-3.417H56.828a3.421,3.421,0,0,1,3.417,3.417v3.417a1.046,1.046,0,0,0,2.092,0V25.364a5.515,5.515,0,0,0-5.508-5.508H19.942v-2.3a3.421,3.421,0,0,1,3.417-3.417H65.753a3.421,3.421,0,0,1,3.417,3.417Z" transform="translate(0 -12.046)"/>
      </g>
    </g>
    <g id="Group_2791" data-name="Group 2791" transform="translate(12.272 37.706)">
      <g id="Group_2790" data-name="Group 2790">
        <path id="Path_1897" data-name="Path 1897" class="cls-1" d="M98.143,196.406H89.218a1.046,1.046,0,1,0,0,2.092h8.925a1.046,1.046,0,1,0,0-2.092Z" transform="translate(-88.172 -196.406)"/>
      </g>
    </g>
    <g id="Group_2793" data-name="Group 2793" transform="translate(25.66 37.706)">
      <g id="Group_2792" data-name="Group 2792">
        <path id="Path_1898" data-name="Path 1898" class="cls-1" d="M192.1,196.406h-6.694a1.046,1.046,0,0,0,0,2.092H192.1a1.046,1.046,0,1,0,0-2.092Z" transform="translate(-184.36 -196.406)"/>
      </g>
    </g>
    <g id="Group_2795" data-name="Group 2795" transform="translate(12.272 46.631)">
      <g id="Group_2794" data-name="Group 2794">
        <path id="Path_1899" data-name="Path 1899" class="cls-1" d="M103.721,260.531h-14.5a1.046,1.046,0,0,0,0,2.092h14.5a1.046,1.046,0,0,0,0-2.092Z" transform="translate(-88.172 -260.531)"/>
      </g>
    </g>
    <g id="Group_2797" data-name="Group 2797" transform="translate(32.353 46.631)">
      <g id="Group_2796" data-name="Group 2796">
        <path id="Path_1900" data-name="Path 1900" class="cls-1" d="M245.772,260.531H233.5a1.046,1.046,0,0,0,0,2.092h12.272a1.046,1.046,0,0,0,0-2.092Z" transform="translate(-232.454 -260.531)"/>
      </g>
    </g>
    <g id="Group_2799" data-name="Group 2799" transform="translate(12.272 52.209)">
      <g id="Group_2798" data-name="Group 2798">
        <path id="Path_1901" data-name="Path 1901" class="cls-1" d="M98.143,300.609H89.218a1.046,1.046,0,0,0,0,2.092h8.925a1.046,1.046,0,0,0,0-2.092Z" transform="translate(-88.172 -300.609)"/>
      </g>
    </g>
    <g id="Group_2801" data-name="Group 2801" transform="translate(25.66 52.209)">
      <g id="Group_2800" data-name="Group 2800">
        <path id="Path_1902" data-name="Path 1902" class="cls-1" d="M204.372,300.609H185.406a1.046,1.046,0,0,0,0,2.092h18.966a1.046,1.046,0,0,0,0-2.092Z" transform="translate(-184.36 -300.609)"/>
      </g>
    </g>
    <g id="Group_2803" data-name="Group 2803" transform="translate(12.272 57.787)">
      <g id="Group_2802" data-name="Group 2802">
        <path id="Path_1903" data-name="Path 1903" class="cls-1" d="M109.3,340.688H89.218a1.046,1.046,0,0,0,0,2.092H109.3a1.046,1.046,0,0,0,0-2.092Z" transform="translate(-88.172 -340.688)"/>
      </g>
    </g>
  </g>
</svg>
