<svg xmlns="http://www.w3.org/2000/svg" viewBox="0 0 61 61">
  <defs>
    <style>
      .cls-1 {
        fill: #fff;
      }
    </style>
  </defs>
  <g id="graph" transform="translate(0 -1.001)">
    <g id="Group_2787" data-name="Group 2787" transform="translate(0 1.001)">
      <g id="Group_2786" data-name="Group 2786">
        <path id="Path_1884" data-name="Path 1884" class="cls-1" d="M180.006,37.177a19.3,19.3,0,1,0,11.556,21.585A19.3,19.3,0,0,0,180.006,37.177Zm8.678,24.432a17.318,17.318,0,1,1-28.264-18.848h0a17.318,17.318,0,0,1,28.264,18.848Z" transform="translate(-135.067 -31.576)"/>
        <path id="Path_1885" data-name="Path 1885" class="cls-1" d="M54.147,7.855A23.4,23.4,0,0,0,19.038,38.648l-1.8,1.8a2.027,2.027,0,0,0-1.957.518L2.332,53.914a2.026,2.026,0,0,0-.518,1.957l-.921.921a3.049,3.049,0,0,0,0,4.313l.719-.719L.9,61.107a3.049,3.049,0,0,0,4.312,0l.921-.921a1.977,1.977,0,0,0,1.957-.518L21.037,46.717a2.026,2.026,0,0,0,.518-1.957l1.8-1.8A23.4,23.4,0,0,0,54.147,7.855ZM3.77,59.67a1.04,1.04,0,0,1-1.437,0l0,0h0a1.015,1.015,0,0,1,0-1.437l.722-.722,1.44,1.44Zm2.879-1.44L5.21,56.791,3.771,55.352h0L13.843,45.278l2.879,2.879ZM18.16,46.72,15.28,43.841l1.44-1.44h0L18.16,43.84,19.6,45.28Zm2.158-3.6-.72-.72-.72-.72,1.477-1.477c.23.251.441.514.684.757s.506.454.757.684Zm25.443,1.034a21.367,21.367,0,1,1,13.19-19.741A21.367,21.367,0,0,1,45.761,44.157Z" transform="translate(0 -1.001)"/>
        <path id="Path_1886" data-name="Path 1886" class="cls-1" d="M233.667,111.667a2.035,2.035,0,0,0-2.033,2.033v5.082H229.6v-9.147a2.035,2.035,0,0,0-2.033-2.033h-3.049a2.035,2.035,0,0,0-2.033,2.033v9.147h-2.033V105.569a2.035,2.035,0,0,0-2.033-2.033h-3.049a2.035,2.035,0,0,0-2.033,2.033V119.8a1.016,1.016,0,0,0,1.016,1.016h23.377a1.016,1.016,0,0,0,1.016-1.016v-6.1a2.035,2.035,0,0,0-2.033-2.033Zm-15.246,7.115h-3.049V105.569h3.051Zm9.147,0H224.52v-9.147h3.051Zm9.147,0h-3.049V113.7h3.051Z" transform="translate(-187.929 -91.323)"/>
        <path id="Path_1887" data-name="Path 1887" class="cls-1" d="M386.042,265.67h-1.016a1.016,1.016,0,1,0,0,2.033h1.016a1.016,1.016,0,0,0,0-2.033Z" transform="translate(-338.271 -234.146)"/>
        <path id="Path_1888" data-name="Path 1888" class="cls-1" d="M309.242,265.67h-1.016a1.016,1.016,0,0,0,0,2.033h1.016a1.016,1.016,0,1,0,0-2.033Z" transform="translate(-270.618 -234.146)"/>
        <path id="Path_1889" data-name="Path 1889" class="cls-1" d="M232.442,265.67h-1.016a1.016,1.016,0,0,0,0,2.033h1.016a1.016,1.016,0,1,0,0-2.033Z" transform="translate(-202.966 -234.146)"/>
      </g>
    </g>
  </g>
</svg>
