<svg id="Group_2816" data-name="Group 2816" xmlns="http://www.w3.org/2000/svg" viewBox="0 0 42.829 42.84">
  <defs>
    <style>
      .cls-1 {
        fill: #1ae5be;
      }

      .cls-2 {
        fill: #0635c9;
      }
    </style>
  </defs>
  <path id="Path_1953" data-name="Path 1953" class="cls-1" d="M47.331,203.861a2.147,2.147,0,0,0,2.144-2.144v-2.144h2.144a2.144,2.144,0,1,0,0-4.287H49.474v-2.144a2.144,2.144,0,1,0-4.287,0v2.144H43.044a2.144,2.144,0,1,0,0,4.287h2.144v2.144a2.147,2.147,0,0,0,2.144,2.144Zm-4.287-5.709a.711.711,0,1,1,0-1.422H45.9a.712.712,0,0,0,.711-.711v-2.855a.711.711,0,1,1,1.422,0v2.855a.712.712,0,0,0,.711.711H51.6a.711.711,0,1,1,0,1.422H48.742a.712.712,0,0,0-.711.711v2.855a.711.711,0,1,1-1.422,0v-2.855a.712.712,0,0,0-.711-.711Zm0,0" transform="translate(-36.623 -171.028)"/>
  <path id="Path_1954" data-name="Path 1954" class="cls-2" d="M32.122,15.706h-5V9.275a3.566,3.566,0,1,0-7.131,0,2.144,2.144,0,1,1-4.287,0V.711a.711.711,0,0,0-1.422,0V9.275a3.566,3.566,0,1,0,7.131,0,2.144,2.144,0,0,1,4.287,0v7.142a.705.705,0,0,0,.711.711h5.709A9.4,9.4,0,0,1,41.4,26.4v11.46A3.666,3.666,0,0,1,37.831,41.4c-2.07,0-3.3-1.349-4.862-3.043-2.248-2.457-5.05-5.521-11.565-5.521s-9.3,3.053-11.533,5.511C8.313,40.048,7.079,41.4,4.988,41.4a3.716,3.716,0,0,1-3.566-3.566V26.413A9.4,9.4,0,0,1,10.7,17.138H23.548a.711.711,0,0,0,0-1.422H10.707A10.836,10.836,0,0,0,0,26.413V37.831a5.132,5.132,0,0,0,5,5c2.729,0,4.287-1.715,5.939-3.524,2.154-2.363,4.6-5.04,10.477-5.04s8.344,2.687,10.509,5.061c1.652,1.809,3.21,3.513,5.908,3.513a5.117,5.117,0,0,0,5-4.956V26.413A10.852,10.852,0,0,0,32.122,15.706Zm0,0"/>
  <path id="Path_1955" data-name="Path 1955" class="cls-1" d="M329.844,236.387a2.144,2.144,0,1,0-2.144-2.144,2.146,2.146,0,0,0,2.144,2.144Zm0-2.855a.711.711,0,1,1-.711.711.7.7,0,0,1,.711-.711Zm0,0" transform="translate(-293.434 -207.831)"/>
  <path id="Path_1956" data-name="Path 1956" class="cls-1" d="M288.844,191.1a2.144,2.144,0,1,0,2.144,2.144,2.147,2.147,0,0,0-2.144-2.144Zm0,2.865a.711.711,0,1,1,.711-.711.712.712,0,0,1-.711.711Zm0,0" transform="translate(-256.721 -171.118)"/>
  <path id="Path_1957" data-name="Path 1957" class="cls-1" d="M247.844,232.1a2.144,2.144,0,1,0,2.144,2.144,2.147,2.147,0,0,0-2.144-2.144Zm0,2.855a.711.711,0,1,1,.711-.711.712.712,0,0,1-.711.711Zm0,0" transform="translate(-220.009 -207.831)"/>
  <path id="Path_1958" data-name="Path 1958" class="cls-1" d="M288.844,277.287a2.144,2.144,0,1,0-2.144-2.144,2.147,2.147,0,0,0,2.144,2.144Zm0-2.855a.711.711,0,1,1-.711.711.712.712,0,0,1,.711-.711Zm0,0" transform="translate(-256.721 -244.454)"/>
</svg>
