<svg xmlns="http://www.w3.org/2000/svg" viewBox="0 0 54 35.994">
  <defs>
    <style>
      .cls-1 {
        fill: #d4e1f4;
      }

      .cls-2 {
        fill: #0635c9;
      }

      .cls-3 {
        fill: #1ae5be;
      }
    </style>
  </defs>
  <g id="Group_2804" data-name="Group 2804" transform="translate(-0.091)">
    <path id="Path_1904" data-name="Path 1904" class="cls-1" d="M66.317,17.241c.012-.012.012-.025.025-.05.723-1.508,2.3-4.049,4.834-4.074L93.7,12.955h.025a3.442,3.442,0,0,1,1.682.424C94.1,11.447,92.855,10.6,91.372,10.6h-.025l-22.514.162c-2.542.012-4.124,2.567-4.847,4.074-.012.012-.012.025-.025.05L60.1,21.851l3.675-.025Zm0,0" transform="translate(-52.533 -9.279)"/>
    <path id="Path_1905" data-name="Path 1905" class="cls-1" d="M28.186,129.512a1.535,1.535,0,0,1-.436-1.047.345.345,0,0,0-.012-.112l-1.4-10.765a3.646,3.646,0,0,1,2.043-3.489l-1.3.012h-.012a.511.511,0,0,1-.137-.012A3.373,3.373,0,0,0,24,117.688l1.4,10.428c0,.037.012.075.012.1a1.458,1.458,0,0,0,1.433,1.433h.012l1.5-.012a1.828,1.828,0,0,1-.162-.125Zm0,0" transform="translate(-20.931 -99.884)"/>
    <path id="Path_1906" data-name="Path 1906" class="cls-2" d="M52.414,148.1a3.14,3.14,0,0,0,.025,6.279h.025a3.14,3.14,0,0,0-.05-6.279Zm1.42,3.127a1.4,1.4,0,0,1-1.4,1.408h-.012a1.4,1.4,0,0,1-.012-2.8h.012a1.429,1.429,0,0,1,1.408,1.4Zm0,0" transform="translate(-43.078 -129.648)"/>
    <path id="Path_1907" data-name="Path 1907" class="cls-2" d="M337.852,146h-.025a3.14,3.14,0,0,0,.025,6.279h.025a3.14,3.14,0,0,0-.025-6.279Zm.012,4.548h0a1.4,1.4,0,1,1-.025-2.8h.012a1.393,1.393,0,0,1,1.4,1.4,1.409,1.409,0,0,1-1.383,1.408Zm0,0" transform="translate(-292.92 -127.81)"/>
    <path id="Path_1908" data-name="Path 1908" class="cls-2" d="M172.642,205h0l-12.87.1a.872.872,0,0,0,0,1.744h.012l12.87-.1a.875.875,0,0,0,.872-.872.894.894,0,0,0-.885-.872Zm0,0" transform="translate(-139.023 -179.459)"/>
    <path id="Path_1909" data-name="Path 1909" class="cls-3" d="M255.358,67.3h0a.875.875,0,0,0,.872-.872,3.674,3.674,0,0,1,3.65-3.7h.025a3.677,3.677,0,0,1,3.675,3.651.864.864,0,0,0,.872.86h.012a.856.856,0,0,0,.86-.872,5.413,5.413,0,0,0-5.42-5.37h-.037a5.413,5.413,0,0,0-5.37,5.457.859.859,0,0,0,.86.847Zm0,0" transform="translate(-222.711 -53.4)"/>
    <path id="Path_1910" data-name="Path 1910" class="cls-3" d="M164.57,154.023h0a.875.875,0,0,0,.872-.872l-.012-2.093a.866.866,0,1,0-1.732.012l.012,2.093a.846.846,0,0,0,.86.86Zm0,0" transform="translate(-143.223 -131.484)"/>
    <path id="Path_1911" data-name="Path 1911" class="cls-3" d="M133.283,154.225h0a.875.875,0,0,0,.872-.872l-.012-2.093a.872.872,0,0,0-.872-.86h-.012a.856.856,0,0,0-.86.872l.012,2.093a.88.88,0,0,0,.872.86Zm0,0" transform="translate(-115.823 -131.662)"/>
    <path id="Path_1912" data-name="Path 1912" class="cls-3" d="M288.872,149.2h0a.875.875,0,0,0-.872.872l.012,2.093a.864.864,0,0,0,.872.86h.012a.856.856,0,0,0,.86-.872l-.012-2.093a.864.864,0,0,0-.872-.86Zm0,0" transform="translate(-252.039 -130.611)"/>
    <path id="Path_1913" data-name="Path 1913" class="cls-3" d="M195.583,153.825h0a.875.875,0,0,0,.872-.872l-.012-2.093a.864.864,0,0,0-.872-.86h-.012a.856.856,0,0,0-.86.872l.012,2.093a.864.864,0,0,0,.872.86Zm0,0" transform="translate(-170.361 -131.311)"/>
    <path id="Path_1914" data-name="Path 1914" class="cls-3" d="M226.683,153.625h0a.875.875,0,0,0,.872-.872l-.012-2.093a.864.864,0,0,0-.872-.86h-.012a.856.856,0,0,0-.86.872l.012,2.093a.872.872,0,0,0,.872.86Zm0,0" transform="translate(-197.586 -131.136)"/>
    <path id="Path_1915" data-name="Path 1915" class="cls-3" d="M257.772,149.4h0a.875.875,0,0,0-.872.872l.012,2.093a.864.864,0,0,0,.872.86h.012a.856.856,0,0,0,.86-.872l-.012-2.093a.872.872,0,0,0-.872-.86Zm0,0" transform="translate(-224.813 -130.786)"/>
    <path id="Path_1916" data-name="Path 1916" class="cls-2" d="M53.666,10.3a3.808,3.808,0,0,0-3.788-2.317h-.037C48.769,8,46.851,8,45.941,8L44.16,4.784C42.9,2.554,41.057,0,38.03,0h-.037L16.164.162c-2.492.012-4.685,1.744-6.18,4.872L8.19,8.3c-.91,0-2.853.012-3.937.025A3.782,3.782,0,0,0,.466,10.69a7.822,7.822,0,0,0-.374,1.993.844.844,0,0,0,.237.635.849.849,0,0,0,.623.274h0l2.542-.025a5.368,5.368,0,0,0-1.807,4.149.345.345,0,0,0,.012.112l1.358,10.1a3.06,3.06,0,0,0,2.5,2.928l.025,3.177a1.97,1.97,0,0,0,1.969,1.956h.012l3.327-.025a1.981,1.981,0,0,0,1.956-1.981l-.025-3.127,28.78-.212.025,3.127A1.97,1.97,0,0,0,43.6,35.733h.012l3.327-.025a1.981,1.981,0,0,0,1.956-1.981l-.025-3.19a3.086,3.086,0,0,0,2.4-2.953l1.258-10.129c0-.037.012-.075.012-.112a5.424,5.424,0,0,0-1.333-3.563,4.748,4.748,0,0,0-.573-.548l2.591-.025a.849.849,0,0,0,.623-.274.891.891,0,0,0,.237-.648,8.262,8.262,0,0,0-.424-1.981ZM11.529,5.856c.012-.012.012-.037.025-.05.685-1.458,2.205-3.887,4.622-3.912L38,1.744h.025c1.682,0,3.065,1.171,4.61,3.887l3.638,6.578L7.841,12.5Zm-9.581,5.98c.05-.2.1-.411.162-.61a2.129,2.129,0,0,1,2.143-1.171c.772,0,1.993-.012,2.953-.012L6.222,11.8Zm8.933,22.389-3.327.025a.262.262,0,0,1-.162-.062.237.237,0,0,1-.062-.162L7.306,30.9l3.775-.025L11.106,34a.223.223,0,0,1-.224.224Zm36.206-.336a.237.237,0,0,1-.162.062l-3.327.025a.262.262,0,0,1-.162-.062.237.237,0,0,1-.062-.162l-.025-3.127,3.775-.025.025,3.127a.237.237,0,0,1-.062.162Zm3.713-16.6L49.529,27.41c0,.037-.012.075-.012.112a1.33,1.33,0,0,1-1.308,1.333l-42.087.311H6.109a1.319,1.319,0,0,1-1.321-1.308.345.345,0,0,0-.012-.112l-1.358-10.1a3.246,3.246,0,0,1,2.791-3.414.511.511,0,0,0,.137.012h.012l41.352-.3h.037a2.806,2.806,0,0,1,2.131.984,3.728,3.728,0,0,1,.922,2.367ZM47.872,11.5,46.9,9.731c.959,0,2.18-.012,2.953-.012a2.177,2.177,0,0,1,2.168,1.146c.062.2.125.4.174.61Zm0,0" transform="translate(0)"/>
  </g>
</svg>
