<svg id="Group_2805" data-name="Group 2805" xmlns="http://www.w3.org/2000/svg" viewBox="0 0 36 49.091">
  <defs>
    <style>
      .cls-1 {
        fill: #0635c9;
      }

      .cls-2 {
        fill: #1ae5be;
      }
    </style>
  </defs>
  <path id="Path_1917" data-name="Path 1917" class="cls-1" d="M200,208.818v11.455a4.09,4.09,0,0,0,4.091,4.091h4.091a4.09,4.09,0,0,0,4.091-4.091V208.818a.821.821,0,0,0-.818-.818H200.818a.821.821,0,0,0-.818.818Zm1.636.818h9v4.909h-9Zm0,6.545h9v4.091a2.449,2.449,0,0,1-2.455,2.455h-4.091a2.449,2.449,0,0,1-2.455-2.455Zm0,0" transform="translate(-179.545 -186.727)"/>
  <path id="Path_1918" data-name="Path 1918" class="cls-2" d="M136.818,210.455a.821.821,0,0,0,.818-.818v-.818a.818.818,0,1,0-1.636,0v.818a.821.821,0,0,0,.818.818Zm0,0" transform="translate(-122.091 -186.727)"/>
  <path id="Path_1919" data-name="Path 1919" class="cls-2" d="M136.818,250.455a.821.821,0,0,0,.818-.818v-.818a.818.818,0,1,0-1.636,0v.818a.821.821,0,0,0,.818.818Zm0,0" transform="translate(-122.091 -222.636)"/>
  <path id="Path_1920" data-name="Path 1920" class="cls-2" d="M136.818,290.455a.821.821,0,0,0,.818-.818v-.818a.818.818,0,0,0-1.636,0v.818a.821.821,0,0,0,.818.818Zm0,0" transform="translate(-122.091 -258.545)"/>
  <path id="Path_1921" data-name="Path 1921" class="cls-2" d="M136.818,330.455a.821.821,0,0,0,.818-.818v-.818a.818.818,0,1,0-1.636,0v.818a.821.821,0,0,0,.818.818Zm0,0" transform="translate(-122.091 -294.455)"/>
  <path id="Path_1922" data-name="Path 1922" class="cls-2" d="M136.818,370.455a.821.821,0,0,0,.818-.818v-.818a.818.818,0,0,0-1.636,0v.818a.821.821,0,0,0,.818.818Zm0,0" transform="translate(-122.091 -330.364)"/>
  <path id="Path_1923" data-name="Path 1923" class="cls-2" d="M258.455,240h-1.636a.818.818,0,0,0,0,1.636h1.636a.818.818,0,1,0,0-1.636Zm0,0" transform="translate(-229.818 -215.455)"/>
  <path id="Path_1924" data-name="Path 1924" class="cls-1" d="M211.455,432H200.818a.818.818,0,0,0,0,1.636h10.636a.818.818,0,1,0,0-1.636Zm0,0" transform="translate(-179.545 -387.818)"/>
  <path id="Path_1925" data-name="Path 1925" class="cls-1" d="M32.818,433.636H43.455a.818.818,0,1,0,0-1.636H32.818a.818.818,0,1,0,0,1.636Zm0,0" transform="translate(-28.727 -387.818)"/>
  <path id="Path_1926" data-name="Path 1926" class="cls-1" d="M0,9V46.636a2.449,2.449,0,0,0,2.455,2.455H33.545A2.449,2.449,0,0,0,36,46.636V9a2.449,2.449,0,0,0-2.455-2.455H31.091V4.091A4.09,4.09,0,0,0,27,0H9A4.09,4.09,0,0,0,4.909,4.091V6.545H2.455A2.449,2.449,0,0,0,0,9Zm29.986,8.131a.83.83,0,0,0,.757-.092.811.811,0,0,0,.348-.675V8.182h2.455A.821.821,0,0,1,34.364,9V46.636a.821.821,0,0,1-.818.818H18.818V19.994c1.1-.972,5.911-4.838,11.168-2.864ZM18,17.744,13.428,8.182h9.143ZM27.491,1.688a2.452,2.452,0,0,1,1.964,2.4V15.249a12.093,12.093,0,0,0-9.266,1.708ZM25.7,1.636,23.349,6.545h-10.7L10.3,1.636ZM6.545,4.091a2.452,2.452,0,0,1,1.964-2.4l7.3,15.269a13.156,13.156,0,0,0-6.7-2.035,10.331,10.331,0,0,0-2.567.327ZM1.636,9a.821.821,0,0,1,.818-.818H4.909v8.182a.838.838,0,0,0,.348.675.83.83,0,0,0,.757.092c5.257-1.974,10.064,1.892,11.168,2.864v27.46H2.455a.821.821,0,0,1-.818-.818Zm0,0"/>
</svg>
