<svg id="Group_2815" data-name="Group 2815" xmlns="http://www.w3.org/2000/svg" viewBox="0 0 43.405 43">
  <defs>
    <style>
      .cls-1 {
        fill: #d4e1f4;
      }

      .cls-2 {
        fill: #1ae5be;
      }

      .cls-3 {
        fill: #0635c9;
      }
    </style>
  </defs>
  <g id="Group_2813" data-name="Group 2813">
    <path id="Path_1943" data-name="Path 1943" class="cls-1" d="M21.209,8.1h-3.59A3.512,3.512,0,0,0,14.1,11.578V33.332h3.59V11.578A3.506,3.506,0,0,1,21.209,8.1Zm0,0" transform="translate(-12.67 -7.278)"/>
    <path id="Path_1944" data-name="Path 1944" class="cls-1" d="M20.209,263.385a3.558,3.558,0,0,1-3.519-3.539V258H13.1v3.032a3.552,3.552,0,0,0,3.519,3.539H54.356v-1.2H20.209Zm0,0" transform="translate(-11.771 -231.835)"/>
    <path id="Path_1945" data-name="Path 1945" class="cls-2" d="M42.579,72.75A5.606,5.606,0,1,0,38.5,70.986a5.588,5.588,0,0,0,4.077,1.765Zm-3.3-8.164a4.182,4.182,0,1,1-.882,2.566,4.182,4.182,0,0,1,.882-2.566Zm0,0" transform="translate(-33.229 -55.307)"/>
    <path id="Path_1946" data-name="Path 1946" class="cls-2" d="M67.294,102.387a.7.7,0,0,0,.984.091l2.728-2.221a.706.706,0,0,0-.892-1.1l-2.191,1.785-.72-.842a.712.712,0,1,0-1.085.923Zm0,0" transform="translate(-59.262 -88.959)"/>
    <path id="Path_1947" data-name="Path 1947" class="cls-2" d="M37.71,185.42h8.62a.71.71,0,1,0,0-1.42H37.71a.71.71,0,0,0,0,1.42Zm0,0" transform="translate(-33.248 -165.34)"/>
    <path id="Path_1948" data-name="Path 1948" class="cls-2" d="M37.71,215.42h5.679a.71.71,0,0,0,0-1.42H37.71a.71.71,0,0,0,0,1.42Zm0,0" transform="translate(-33.248 -192.297)"/>
    <path id="Path_1949" data-name="Path 1949" class="cls-3" d="M0,4.767V29.532a4.768,4.768,0,0,0,4.787,4.746H20.993v7.3H13.326a.71.71,0,1,0,0,1.42H30.567a.71.71,0,1,0,0-1.42H22.413v-7.3H38.619a4.768,4.768,0,0,0,4.787-4.746V4.767A4.785,4.785,0,0,0,38.619,0H4.787A4.785,4.785,0,0,0,0,4.767ZM38.619,32.858H4.787A3.35,3.35,0,0,1,1.42,29.532v-2.86H41.986v2.86a3.35,3.35,0,0,1-3.367,3.326ZM41.986,4.767V25.252H1.42V4.767A3.367,3.367,0,0,1,4.787,1.42H38.619a3.367,3.367,0,0,1,3.367,3.347Zm0,0"/>
  </g>
  <g id="Group_2814" data-name="Group 2814" transform="translate(20.577 8.274)">
    <path id="Path_1950" data-name="Path 1950" class="cls-2" d="M311.47,106.53l-3.55-3.022a.544.544,0,0,0-.761.071.556.556,0,0,0,.051.771l3.063,2.606-3.073,2.6a.533.533,0,0,0-.193.517.556.556,0,0,0,.365.426.566.566,0,0,0,.548-.112l3.55-3.022a.545.545,0,0,0,0-.832Zm0,0" transform="translate(-296.44 -101.175)"/>
    <path id="Path_1951" data-name="Path 1951" class="cls-2" d="M263.06,81.6a.553.553,0,0,0-.649.426L260.2,92.543a.553.553,0,0,0,.426.649.416.416,0,0,0,.112.01.544.544,0,0,0,.538-.436l2.211-10.517a.553.553,0,0,0-.426-.649Zm0,0" transform="translate(-254.379 -81.589)"/>
    <path id="Path_1952" data-name="Path 1952" class="cls-2" d="M202.9,106.894a.54.54,0,0,0,.193.416l3.55,3.022a.547.547,0,0,0,.71-.832l-3.063-2.606,3.063-2.606a.551.551,0,0,0-.71-.842l-3.55,3.022a.577.577,0,0,0-.193.426Zm0,0" transform="translate(-202.9 -101.122)"/>
  </g>
</svg>
