<svg id="Group_2812" data-name="Group 2812" xmlns="http://www.w3.org/2000/svg" xmlns:xlink="http://www.w3.org/1999/xlink" viewBox="0 0 40.757 44.3">
  <defs>
    <style>
      .cls-1 {
        fill: #d4e1f4;
      }

      .cls-2 {
        clip-path: url(#clip-path);
      }

      .cls-3 {
        fill: #0635c9;
      }

      .cls-4 {
        fill: #1ae5be;
      }
    </style>
    <clipPath id="clip-path">
      <rect id="Rectangle_1485" data-name="Rectangle 1485" width="40.757" height="44.3"/>
    </clipPath>
  </defs>
  <path id="Path_1939" data-name="Path 1939" class="cls-1" d="M56.048,88.7a12.934,12.934,0,0,0-.454,1.415c-.948,3.427-1.207,8.826,2.817,15.251L54.5,107.923A17.028,17.028,0,0,1,56.048,88.7Zm0,0" transform="translate(-45.457 -77.187)"/>
  <g id="Group_2811" data-name="Group 2811">
    <g id="Group_2808" data-name="Group 2808" class="cls-2">
      <path id="Path_1940" data-name="Path 1940" class="cls-1" d="M87.363,237.851A16.724,16.724,0,0,1,77.2,231.27l3.92-2.57c4.348,6.088,9.242,8.073,12.681,8.645.571.091,1.155.156,1.739.195a16.465,16.465,0,0,1-8.177.312Zm0,0" transform="translate(-67.18 -199.015)"/>
    </g>
    <g id="Group_2809" data-name="Group 2809" class="cls-2">
      <path id="Path_1941" data-name="Path 1941" class="cls-3" d="M60.859,18.068a17.677,17.677,0,0,0-13.136,1.571l-1.96-3.323a.91.91,0,1,0-1.571.922L46.166,20.6a17.968,17.968,0,0,0-5.361,23.714,17.763,17.763,0,0,0,23.013,7.256L66,55.047a.9.9,0,1,0,1.532-.96l-2.116-3.375c.363-.221.714-.441,1.051-.688a.179.179,0,0,0,.052-.039,17.973,17.973,0,0,0,5.166-23.571,17.688,17.688,0,0,0-10.825-8.346Zm9.268,9.255c.091.156.182.312.26.48a6.387,6.387,0,0,1-3.959,2.817,3.057,3.057,0,0,1-2.648-.7c-1.9-1.661-2.907-3.816-2.635-5.646a4.249,4.249,0,0,1,2.57-3.141,15.913,15.913,0,0,1,6.412,6.191Zm-9.358-7.385q.467.136.935.312A6.316,6.316,0,0,0,60.081,22a3.565,3.565,0,0,0-.3-1.1,11.486,11.486,0,0,0,.986-.961Zm-4.543-.662a15.179,15.179,0,0,1,2.427.195c-.182.143-.389.273-.584.4a.906.906,0,0,0-.415.623.922.922,0,0,0,.195.727,1.541,1.541,0,0,1-.065,2.181,2.056,2.056,0,0,1-2.557.519,3.512,3.512,0,0,1-1.35-2.271c.026-.169.156-.324.389-.584a3.082,3.082,0,0,0,.909-1.739,9.661,9.661,0,0,1,1.051-.052ZM43.96,25.051c2.765,1.077,4.3,4.958,3.829,7.048a.886.886,0,0,0,.3.883c1.038.9,1.233,1.493,1.116,1.661a2.119,2.119,0,0,1-2.207.13.879.879,0,0,0-.675-.078,4.293,4.293,0,0,0-3.1,2.388,2.085,2.085,0,0,0,.4,1.986c.169.208.6.753,3.258,1.064a7.891,7.891,0,0,0,3.245-.078,4.437,4.437,0,0,0,1.493-1.4,3.375,3.375,0,0,1,.8-.844c.143-.078.234-.065.6.026a2.965,2.965,0,0,0,1.389.065,3.08,3.08,0,0,0,1.246-.675,1.49,1.49,0,0,1,.636-.363.914.914,0,0,1,.61.208,3.118,3.118,0,0,0,1.246.48.814.814,0,0,0,.493-.078c1.4-.649,2.375-.831,2.907-.558.428.221.727.87.9,1.9.273,1.661.415,2.726-.026,3.686a.9.9,0,0,0-.078.519,16.872,16.872,0,0,0,2.375,5.828,1.139,1.139,0,0,1,.078.13c-.169.1-.35.221-.519.312a16.127,16.127,0,0,1-4.011,1.648,10.259,10.259,0,0,1-.636-.961,7.8,7.8,0,0,0-.9-1.246.915.915,0,0,0-.714-.247c-5.932.584-7.892-2.479-8.086-2.83-.143-.247-.117-.376-.026-.779a2.889,2.889,0,0,0,.013-1.609.836.836,0,0,0-.273-.415c-2.194-1.856-4.815.13-6.62,1.558-.221-.324-.441-.675-.636-1.012a16.117,16.117,0,0,1,1.571-18.34Zm8.164,25.856a15.958,15.958,0,0,1-8.009-5.036c1.96-1.545,3.18-2.271,4.089-1.791a2.2,2.2,0,0,1-.078.4,2.6,2.6,0,0,0,.221,2.116c.389.675,2.518,3.8,8.177,3.8q.565,0,1.168-.039c.13.182.273.415.389.61.078.117.156.247.234.363a16.055,16.055,0,0,1-6.191-.428Zm14.148-2.985a16.225,16.225,0,0,1-2.1-4.932,8.264,8.264,0,0,0,.052-4.465c-.273-1.648-.87-2.7-1.843-3.206-1.038-.558-2.349-.441-4.231.389a1.6,1.6,0,0,1-.324-.182,2.668,2.668,0,0,0-1.622-.467,2.751,2.751,0,0,0-1.661.74,1.929,1.929,0,0,1-.571.35,1.22,1.22,0,0,1-.571-.065,2.434,2.434,0,0,0-1.869.156,4.634,4.634,0,0,0-1.376,1.324,3.26,3.26,0,0,1-.818.857,12.324,12.324,0,0,1-4.348-.532c-.091-.143-.078-.195-.065-.234a2.8,2.8,0,0,1,1.571-1.1c1.376.545,3.362.312,4.179-.87a2.075,2.075,0,0,0,.182-2.012,4.9,4.9,0,0,0-1.233-1.713,9.143,9.143,0,0,0-4.387-8.294,15.935,15.935,0,0,1,7.892-4.076c-.065.078-.143.169-.234.26a2.814,2.814,0,0,0-.844,1.558,5.062,5.062,0,0,0,2.129,4,3.855,3.855,0,0,0,4.919-.792,2.6,2.6,0,0,0,.182-.208,8.661,8.661,0,0,0,3.284,6.879,4.719,4.719,0,0,0,3.206,1.207,5.832,5.832,0,0,0,.948-.078,7.929,7.929,0,0,0,4.5-2.713,16.093,16.093,0,0,1-4.945,18.224Zm0,0" transform="translate(-33.433 -13.81)"/>
    </g>
    <g id="Group_2810" data-name="Group 2810" class="cls-2">
      <path id="Path_1942" data-name="Path 1942" class="cls-4" d="M36.946,37.6a21.408,21.408,0,0,1-3.154,2.245,20.915,20.915,0,0,1-28.607-7.7A21.1,21.1,0,0,1,12.856,3.427a19.844,19.844,0,0,1,3.414-1.584.9.9,0,0,0-.61-1.7A23.48,23.48,0,0,0,11.947,1.87,22.89,22.89,0,0,0,3.614,33.047,22.567,22.567,0,0,0,17.451,43.691a23.6,23.6,0,0,0,3.8.688l5.179-.117A22.646,22.646,0,0,0,34.7,41.406a21.891,21.891,0,0,0,3.427-2.44.919.919,0,0,0,.1-1.285.93.93,0,0,0-1.285-.078ZM24.615,52.141" transform="translate(-0.499 -0.079)"/>
    </g>
  </g>
</svg>
