<svg xmlns="http://www.w3.org/2000/svg" width="16.265" height="16.266" viewBox="0 0 16.265 16.266">
  <g id="add" transform="translate(-0.001 8.131) rotate(-45)">
    <g id="Group_2926" data-name="Group 2926" transform="translate(0 0.001)">
      <path id="Path_1983" data-name="Path 1983" d="M10.877,4.949H6.553V.625A.776.776,0,0,0,5.751,0a.776.776,0,0,0-.8.624V4.949H.624a.776.776,0,0,0-.624.8.776.776,0,0,0,.624.8H4.948v4.324a.776.776,0,0,0,.8.624.776.776,0,0,0,.8-.624V6.554h4.324a.776.776,0,0,0,.624-.8A.776.776,0,0,0,10.877,4.949Z" transform="translate(0 -0.001)" fill="#e81159"/>
    </g>
  </g>
</svg>
