<svg xmlns="http://www.w3.org/2000/svg" width="39" height="35.796" viewBox="0 0 39 35.796">
  <g id="chat" transform="translate(0 -2.465)" opacity="0.42">
    <path id="Path_1976" data-name="Path 1976" d="M9.65,24.765H18.1a.65.65,0,0,0,0-1.3H9.65a.65.65,0,0,0,0,1.3Z" transform="translate(-3.15 -7.35)" fill="#686868"/>
    <path id="Path_1977" data-name="Path 1977" d="M26.55,29.465H9.65a.65.65,0,1,0,0,1.3h16.9a.65.65,0,1,0,0-1.3Z" transform="translate(-3.15 -9.45)" fill="#686868"/>
    <path id="Path_1978" data-name="Path 1978" d="M26.55,35.465H9.65a.65.65,0,1,0,0,1.3h16.9a.65.65,0,1,0,0-1.3Z" transform="translate(-3.15 -11.55)" fill="#686868"/>
    <path id="Path_1979" data-name="Path 1979" d="M35.147,2.51,12.955,2.465A3.859,3.859,0,0,0,9.1,6.319V9.65l-5.245.011A3.859,3.859,0,0,0,0,13.516V27.257a3.858,3.858,0,0,0,3.855,3.854H7.8v6.5a.65.65,0,0,0,1.131.437l6.308-6.939,10.807-.044A3.859,3.859,0,0,0,29.9,27.212v-.073L33.319,30.9a.65.65,0,0,0,1.131-.437v-6.5h.7A3.859,3.859,0,0,0,39,20.108V6.365A3.859,3.859,0,0,0,35.147,2.51ZM28.6,27.211a2.557,2.557,0,0,1-2.557,2.554l-11.1.045a.65.65,0,0,0-.478.213L9.1,35.93V30.461a.65.65,0,0,0-.65-.65h-4.6A2.557,2.557,0,0,1,1.3,27.257V13.515a2.558,2.558,0,0,1,2.556-2.555l5.894-.012h0l16.294-.034A2.557,2.557,0,0,1,28.6,13.469V27.211Zm9.1-7.1a2.557,2.557,0,0,1-2.555,2.554H33.8a.65.65,0,0,0-.65.65V28.78L29.9,25.2V13.47a3.859,3.859,0,0,0-3.856-3.855L10.4,9.647V6.319a2.557,2.557,0,0,1,2.553-2.555l22.192.046h0A2.557,2.557,0,0,1,37.7,6.364V20.107Z" fill="#686868"/>
  </g>
</svg>
