<svg xmlns="http://www.w3.org/2000/svg" width="27.6" height="27.6" viewBox="0 0 27.6 27.6">
  <g id="comparison" transform="translate(0 0)">
    <g id="Group_2849" data-name="Group 2849">
      <path id="Path_1968" data-name="Path 1968" d="M22.834,9.1l4.173-1.159a.809.809,0,0,0-.433-1.558L21.387,7.825h0L14.608,9.708V.813a.809.809,0,1,0-1.617,0v9.345l-7.193,2h0L.592,13.6a.809.809,0,1,0,.433,1.558l3.244-.9L.115,21.183A.809.809,0,0,0,0,21.6a6.005,6.005,0,0,0,12.01,0,.809.809,0,0,0-.115-.416l-4.65-7.751,12.614-3.5L15.7,16.852a.809.809,0,0,0-.115.416,6.005,6.005,0,0,0,12.01,0,.807.807,0,0,0-.115-.416ZM9.773,20.79H2.236L6,14.509Zm8.052-4.33,3.768-6.281,3.768,6.281Z" transform="translate(0 -0.004)" fill="#fff"/>
    </g>
  </g>
</svg>
