<svg xmlns="http://www.w3.org/2000/svg" width="14.638" height="19.961" viewBox="0 0 14.638 19.961">
  <path id="flag" d="M22.429,1.047a10.72,10.72,0,0,0-3.6-.664,6.345,6.345,0,0,0-3,.679,6.531,6.531,0,0,1-3.036.6A17.779,17.779,0,0,1,8.665,1.1V.333A.333.333,0,1,0,8,.333v1s0,.009,0,.013,0,.007,0,.011V19.628a.333.333,0,1,0,.665,0v-7.86a18.11,18.11,0,0,0,4.128.541,7.177,7.177,0,0,0,3.347-.679,5.688,5.688,0,0,1,2.69-.6,10.228,10.228,0,0,1,3.351.617.333.333,0,0,0,.456-.309V1.355A.332.332,0,0,0,22.429,1.047Z" transform="translate(-8)" fill="#002f5f"/>
</svg>
