<svg xmlns="http://www.w3.org/2000/svg" width="20.523" height="20.524" viewBox="0 0 20.523 20.524">
  <g id="icon_search" transform="translate(0 0)">
    <path id="icon_search-2" data-name="icon_search" d="M16.291,14.4a8.693,8.693,0,0,0,1.8-5.354A9,9,0,0,0,9.107,0,9.114,9.114,0,0,0,0,9.051,9.114,9.114,0,0,0,9.107,18.1a8.552,8.552,0,0,0,5.387-1.785l3.848,3.824a1.245,1.245,0,0,0,1.8,0,1.227,1.227,0,0,0,0-1.785Zm-7.183,1.02A6.441,6.441,0,0,1,2.565,9.051a6.542,6.542,0,0,1,13.084,0A6.441,6.441,0,0,1,9.107,15.425Z" transform="translate(0 0)" fill="#fff"/>
  </g>
</svg>
