<svg xmlns="http://www.w3.org/2000/svg" width="46.933" height="46" viewBox="0 0 46.933 46">
  <g id="quality" transform="translate(-55.666)">
    <g id="Group_2932" data-name="Group 2932" transform="translate(55.666)">
      <g id="Group_2931" data-name="Group 2931" transform="translate(0)">
        <path id="Path_1986" data-name="Path 1986" d="M100.547,24.339A7.624,7.624,0,0,1,98.256,14.3a4.711,4.711,0,0,0-5.464-6.852,7.624,7.624,0,0,1-9.277-4.468,4.711,4.711,0,0,0-8.764,0,7.624,7.624,0,0,1-9.277,4.468A4.711,4.711,0,0,0,60.009,14.3,7.624,7.624,0,0,1,57.718,24.34a4.711,4.711,0,0,0,1.95,8.544,7.624,7.624,0,0,1,6.42,8.05,4.711,4.711,0,0,0,7.9,3.8,7.624,7.624,0,0,1,10.3,0,4.711,4.711,0,0,0,7.9-3.8,7.624,7.624,0,0,1,6.42-8.05,4.711,4.711,0,0,0,1.95-8.544ZM79.132,39.348A15.417,15.417,0,1,1,94.549,23.931,15.435,15.435,0,0,1,79.132,39.348Z" transform="translate(-55.666 0)" fill="#0083ed"/>
      </g>
    </g>
    <g id="Group_2934" data-name="Group 2934" transform="translate(66.59 11.388)">
      <g id="Group_2933" data-name="Group 2933" transform="translate(0)">
        <path id="Path_1987" data-name="Path 1987" d="M161.463,97.225a12.543,12.543,0,1,0,12.543,12.543A12.557,12.557,0,0,0,161.463,97.225Zm6.428,11.327-7.806,5.7a1.437,1.437,0,0,1-2.024-.335l-2.335-3.325a1.437,1.437,0,1,1,2.352-1.652l1.493,2.126,6.624-4.838a1.437,1.437,0,1,1,1.7,2.321Z" transform="translate(-148.92 -97.225)" fill="#0083ed"/>
      </g>
    </g>
  </g>
</svg>
