<svg xmlns="http://www.w3.org/2000/svg" width="35.454" height="35.454" viewBox="0 0 35.454 35.454">
  <g id="questions-circular-button" opacity="0.42">
    <g id="Group_2922" data-name="Group 2922">
      <path id="Path_1980" data-name="Path 1980" d="M225.9,181.208l-.3.319Z" transform="translate(-212.535 -170.71)" fill="#686868"/>
      <path id="Path_1981" data-name="Path 1981" d="M213.448,157.109a3.083,3.083,0,0,1,.69,2.006,3.007,3.007,0,0,1-.472,1.594,3.892,3.892,0,0,1-.683.838l-.944.933a7.309,7.309,0,0,0-1.758,2.367,7.65,7.65,0,0,0-.4,2.72h2.1a5.806,5.806,0,0,1,.337-2.248,6.633,6.633,0,0,1,1.47-1.86,16.078,16.078,0,0,0,2.071-2.29,3.633,3.633,0,0,0,.514-2.031,4.476,4.476,0,0,0-1.4-3.394,5.849,5.849,0,0,0-7.679.224,5.787,5.787,0,0,0-1.441,4.1h2.1a5.689,5.689,0,0,1,.483-2.35,3.362,3.362,0,0,1,5.01-.612Z" transform="translate(-193.928 -145.472)" fill="#686868"/>
      <path id="Path_1982" data-name="Path 1982" d="M35.454,17.727A17.727,17.727,0,1,0,17.727,35.454,17.727,17.727,0,0,0,35.454,17.727Zm-33.843,0A16.116,16.116,0,1,1,17.727,33.843,16.115,16.115,0,0,1,1.612,17.727Z" fill="#686868"/>
      <rect id="Rectangle_1554" data-name="Rectangle 1554" width="2.35" height="2.454" transform="translate(15.903 24.054)" fill="#686868"/>
    </g>
  </g>
</svg>
