<svg xmlns="http://www.w3.org/2000/svg" width="20" height="20" viewBox="0 0 20 20">
  <g id="Selection_Control_Radio_On_Enabled" data-name="Selection Control / Radio / On / Enabled" transform="translate(-82 -658)">
    <path id="Selection_Control_Radio_On_Enabled-2" data-name="Selection Control / Radio / On / Enabled" d="M15-384A10,10,0,0,0,5-374a10,10,0,0,0,10,10,10,10,0,0,0,10-10A10,10,0,0,0,15-384Zm0,18a8,8,0,0,1-8-8,8,8,0,0,1,8-8,8,8,0,0,1,8,8A8,8,0,0,1,15-366Zm0-3a5,5,0,0,0,5-5,5,5,0,0,0-5-5,5,5,0,0,0-5,5A5,5,0,0,0,15-369Z" transform="translate(77 1042)" fill="#0083ed"/>
  </g>
</svg>
