<svg xmlns="http://www.w3.org/2000/svg" width="20" height="20" viewBox="0 0 20 20">
  <g id="Selection_Control_Radio_Off_Disabled" data-name="Selection Control / Radio / Off / Disabled" transform="translate(-271 -714)">
    <path id="Selection_Control_Radio_Off_Disabled-2" data-name="Selection Control / Radio / Off / Disabled" d="M15-328A10,10,0,0,0,5-318a10,10,0,0,0,10,10,10,10,0,0,0,10-10A10,10,0,0,0,15-328Zm0,18a8,8,0,0,1-8-8,8,8,0,0,1,8-8,8,8,0,0,1,8,8A8,8,0,0,1,15-310Z" transform="translate(266 1042)" fill="#0083ed" opacity="0.7"/>
  </g>
</svg>
