<svg xmlns="http://www.w3.org/2000/svg" width="21.519" height="20.658" viewBox="0 0 21.519 20.658">
  <g id="thumbs-up-hand-symbol" transform="translate(21.519 20.658) rotate(180)">
    <g id="Group_2892" data-name="Group 2892" transform="translate(0 0)">
      <path id="Path_1969" data-name="Path 1969" d="M14.324,11.472a2.948,2.948,0,0,0,.74-2,2.617,2.617,0,0,0-2.581-2.583H8.757a3.383,3.383,0,0,1,.107-.323,2.248,2.248,0,0,1,.148-.3q.094-.161.134-.242.242-.457.37-.753a5.5,5.5,0,0,0,.255-.807A4.192,4.192,0,0,0,9.9,3.443c0-.215,0-.39-.007-.524a5.781,5.781,0,0,0-.067-.605,3.4,3.4,0,0,0-.162-.672,3.134,3.134,0,0,0-.323-.605A1.885,1.885,0,0,0,8.8.491,2.947,2.947,0,0,0,8,.141,4.016,4.016,0,0,0,6.886,0a.827.827,0,0,0-.605.256,2.335,2.335,0,0,0-.457.672,4,4,0,0,0-.262.7q-.074.3-.168.82-.121.565-.182.814a4.3,4.3,0,0,1-.235.652,2.061,2.061,0,0,1-.417.646A19.888,19.888,0,0,0,3.2,6.173Q2.542,7.034,1.842,7.8T.82,8.594a.882.882,0,0,0-.578.276A.812.812,0,0,0,0,9.455v8.621a.8.8,0,0,0,.256.6.889.889,0,0,0,.605.262,9.833,9.833,0,0,1,2.125.592q1.035.349,1.62.531t1.634.39a9.993,9.993,0,0,0,1.937.209H9.911a3.341,3.341,0,0,0,2.65-1.049,3.233,3.233,0,0,0,.659-2.434,2.616,2.616,0,0,0,.726-1.264,2.766,2.766,0,0,0,0-1.573,2.791,2.791,0,0,0,.578-1.843A3.206,3.206,0,0,0,14.324,11.472Z" transform="translate(6.455)" fill="#fff"/>
      <path id="Path_1970" data-name="Path 1970" d="M4.734,0H.861A.827.827,0,0,0,.256.256.827.827,0,0,0,0,.861V9.468a.828.828,0,0,0,.256.605.829.829,0,0,0,.605.255H4.734a.872.872,0,0,0,.861-.861V.861A.827.827,0,0,0,5.339.256.827.827,0,0,0,4.734,0ZM3.187,8.359a.838.838,0,0,1-.605.249A.861.861,0,0,1,1.97,7.142a.852.852,0,0,1,1.217,0,.852.852,0,0,1,0,1.217Z" transform="translate(0 8.608)" fill="#fff"/>
    </g>
  </g>
</svg>
