<svg xmlns="http://www.w3.org/2000/svg" width="21.519" height="20.658" viewBox="0 0 21.519 20.658">
  <g id="thumbs-up-hand-symbol" transform="translate(0 0)">
    <g id="Group_2892" data-name="Group 2892" transform="translate(0 0)">
      <path id="Path_1969" data-name="Path 1969" d="M151.362,20.608a2.948,2.948,0,0,0,.74-2,2.617,2.617,0,0,0-2.581-2.583H145.8a3.383,3.383,0,0,1,.107-.323,2.248,2.248,0,0,1,.148-.3q.094-.161.134-.242.242-.457.37-.753a5.5,5.5,0,0,0,.255-.807,4.192,4.192,0,0,0,.128-1.022c0-.215,0-.39-.007-.524a5.781,5.781,0,0,0-.067-.605,3.4,3.4,0,0,0-.162-.672,3.134,3.134,0,0,0-.323-.605,1.885,1.885,0,0,0-.538-.545,2.947,2.947,0,0,0-.807-.35,4.016,4.016,0,0,0-1.11-.141.827.827,0,0,0-.605.256,2.335,2.335,0,0,0-.457.672,4,4,0,0,0-.262.7q-.074.3-.168.82-.121.565-.182.814a4.3,4.3,0,0,1-.235.652,2.061,2.061,0,0,1-.417.646,19.887,19.887,0,0,0-1.358,1.614q-.659.861-1.358,1.627t-1.022.794a.882.882,0,0,0-.578.276.812.812,0,0,0-.242.585v8.621a.8.8,0,0,0,.255.6.889.889,0,0,0,.605.262,9.833,9.833,0,0,1,2.125.592q1.035.349,1.62.531t1.634.39a9.993,9.993,0,0,0,1.937.209h1.735a3.341,3.341,0,0,0,2.65-1.049,3.233,3.233,0,0,0,.659-2.434,2.616,2.616,0,0,0,.726-1.264,2.766,2.766,0,0,0,0-1.573,2.791,2.791,0,0,0,.578-1.843A3.206,3.206,0,0,0,151.362,20.608Z" transform="translate(-130.584 -9.136)" fill="#fff"/>
      <path id="Path_1970" data-name="Path 1970" d="M4.734,191.864H.861a.827.827,0,0,0-.605.256.827.827,0,0,0-.256.605v8.608a.828.828,0,0,0,.256.605.829.829,0,0,0,.605.255H4.734a.872.872,0,0,0,.861-.861v-8.608a.873.873,0,0,0-.861-.861Zm-1.547,8.359a.838.838,0,0,1-.605.249.861.861,0,0,1-.612-1.466.852.852,0,0,1,1.217,0,.852.852,0,0,1,0,1.217Z" transform="translate(0 -183.256)" fill="#fff"/>
    </g>
  </g>
</svg>
